<mxfile host="app.diagrams.net" agent="Mozilla/5.0 (Windows NT 10.0; Win64; x64) AppleWebKit/537.36 (KHTML, like Gecko) Chrome/134.0.0.0 Safari/537.36" version="26.2.3">
  <diagram name="Page-1" id="1YUdudG6JT8FrjYO8UVq">
    <mxGraphModel dx="3170" dy="1400" grid="1" gridSize="10" guides="1" tooltips="1" connect="1" arrows="1" fold="1" page="1" pageScale="1" pageWidth="850" pageHeight="1100" background="#ffffff" math="0" shadow="0">
      <root>
        <mxCell id="0" />
        <mxCell id="1" parent="0" />
        <mxCell id="JrE_k6nqY89Hddkw8lCs-2" value="PC" style="rounded=0;whiteSpace=wrap;html=1;rotation=0;fontColor=light-dark(#000000,#EDEDED);labelBackgroundColor=none;" vertex="1" parent="1">
          <mxGeometry x="50" y="240" width="60" height="130" as="geometry" />
        </mxCell>
        <mxCell id="JrE_k6nqY89Hddkw8lCs-3" value="Instruction [31:0]" style="rounded=0;whiteSpace=wrap;html=1;fontColor=light-dark(#000000,#EDEDED);labelBackgroundColor=none;" vertex="1" parent="1">
          <mxGeometry x="180" y="260" width="120" height="140" as="geometry" />
        </mxCell>
        <mxCell id="JrE_k6nqY89Hddkw8lCs-4" value="Read&lt;div&gt;Address&lt;/div&gt;" style="text;html=1;align=center;verticalAlign=middle;resizable=0;points=[];autosize=1;strokeColor=none;fillColor=none;fontColor=light-dark(#000000,#EDEDED);labelBackgroundColor=none;" vertex="1" parent="1">
          <mxGeometry x="180" y="270" width="70" height="40" as="geometry" />
        </mxCell>
        <mxCell id="JrE_k6nqY89Hddkw8lCs-5" value="Instruction&lt;div&gt;Memory&lt;/div&gt;" style="text;html=1;align=center;verticalAlign=middle;resizable=0;points=[];autosize=1;strokeColor=none;fillColor=none;fontColor=light-dark(#000000,#EDEDED);labelBackgroundColor=none;" vertex="1" parent="1">
          <mxGeometry x="200" y="360" width="80" height="40" as="geometry" />
        </mxCell>
        <mxCell id="JrE_k6nqY89Hddkw8lCs-6" value="" style="endArrow=classic;html=1;rounded=0;fontColor=light-dark(#000000,#EDEDED);labelBackgroundColor=none;" edge="1" parent="1">
          <mxGeometry width="50" height="50" relative="1" as="geometry">
            <mxPoint x="110" y="290" as="sourcePoint" />
            <mxPoint x="180" y="290" as="targetPoint" />
          </mxGeometry>
        </mxCell>
        <mxCell id="JrE_k6nqY89Hddkw8lCs-8" value="" style="endArrow=none;html=1;rounded=0;fontColor=light-dark(#000000,#EDEDED);labelBackgroundColor=none;" edge="1" parent="1">
          <mxGeometry width="50" height="50" relative="1" as="geometry">
            <mxPoint x="300" y="340" as="sourcePoint" />
            <mxPoint x="360" y="340" as="targetPoint" />
          </mxGeometry>
        </mxCell>
        <mxCell id="JrE_k6nqY89Hddkw8lCs-9" value="" style="endArrow=none;html=1;rounded=0;fontColor=light-dark(#000000,#EDEDED);labelBackgroundColor=none;" edge="1" parent="1">
          <mxGeometry width="50" height="50" relative="1" as="geometry">
            <mxPoint x="360" y="340" as="sourcePoint" />
            <mxPoint x="360" y="240" as="targetPoint" />
          </mxGeometry>
        </mxCell>
        <mxCell id="JrE_k6nqY89Hddkw8lCs-11" value="" style="endArrow=classic;html=1;rounded=0;fontColor=light-dark(#000000,#EDEDED);labelBackgroundColor=none;" edge="1" parent="1">
          <mxGeometry width="50" height="50" relative="1" as="geometry">
            <mxPoint x="360" y="240" as="sourcePoint" />
            <mxPoint x="440" y="240" as="targetPoint" />
          </mxGeometry>
        </mxCell>
        <mxCell id="JrE_k6nqY89Hddkw8lCs-12" value="&lt;font style=&quot;&quot;&gt;Control&lt;/font&gt;" style="ellipse;whiteSpace=wrap;html=1;fillColor=none;fontColor=light-dark(#000000,#EDEDED);strokeColor=#006EAF;labelBackgroundColor=none;" vertex="1" parent="1">
          <mxGeometry x="440" y="160" width="110" height="160" as="geometry" />
        </mxCell>
        <mxCell id="JrE_k6nqY89Hddkw8lCs-14" value="" style="endArrow=none;html=1;rounded=0;fontColor=light-dark(#000000,#EDEDED);labelBackgroundColor=none;" edge="1" parent="1">
          <mxGeometry width="50" height="50" relative="1" as="geometry">
            <mxPoint x="360" y="430" as="sourcePoint" />
            <mxPoint x="360" y="340" as="targetPoint" />
          </mxGeometry>
        </mxCell>
        <mxCell id="JrE_k6nqY89Hddkw8lCs-15" value="" style="rounded=0;whiteSpace=wrap;html=1;fontColor=light-dark(#000000,#EDEDED);labelBackgroundColor=none;" vertex="1" parent="1">
          <mxGeometry x="430" y="390" width="120" height="200" as="geometry" />
        </mxCell>
        <mxCell id="JrE_k6nqY89Hddkw8lCs-16" value="" style="endArrow=classic;html=1;rounded=0;fontColor=light-dark(#000000,#EDEDED);labelBackgroundColor=none;" edge="1" parent="1">
          <mxGeometry width="50" height="50" relative="1" as="geometry">
            <mxPoint x="360" y="430" as="sourcePoint" />
            <mxPoint x="428" y="430" as="targetPoint" />
          </mxGeometry>
        </mxCell>
        <mxCell id="JrE_k6nqY89Hddkw8lCs-17" value="" style="endArrow=none;html=1;rounded=0;fontColor=light-dark(#000000,#EDEDED);labelBackgroundColor=none;" edge="1" parent="1">
          <mxGeometry width="50" height="50" relative="1" as="geometry">
            <mxPoint x="360" y="480" as="sourcePoint" />
            <mxPoint x="360" y="430" as="targetPoint" />
          </mxGeometry>
        </mxCell>
        <mxCell id="JrE_k6nqY89Hddkw8lCs-18" value="" style="endArrow=classic;html=1;rounded=0;entryX=0;entryY=0.75;entryDx=0;entryDy=0;entryPerimeter=0;fontColor=light-dark(#000000,#EDEDED);labelBackgroundColor=none;" edge="1" parent="1" target="JrE_k6nqY89Hddkw8lCs-22">
          <mxGeometry width="50" height="50" relative="1" as="geometry">
            <mxPoint x="360" y="480" as="sourcePoint" />
            <mxPoint x="410" y="430" as="targetPoint" />
          </mxGeometry>
        </mxCell>
        <mxCell id="JrE_k6nqY89Hddkw8lCs-19" value="" style="endArrow=none;html=1;rounded=0;fontColor=light-dark(#000000,#EDEDED);labelBackgroundColor=none;" edge="1" parent="1">
          <mxGeometry width="50" height="50" relative="1" as="geometry">
            <mxPoint x="360" y="520" as="sourcePoint" />
            <mxPoint x="360" y="480" as="targetPoint" />
          </mxGeometry>
        </mxCell>
        <mxCell id="JrE_k6nqY89Hddkw8lCs-20" value="" style="endArrow=classic;html=1;rounded=0;entryX=-0.037;entryY=0.492;entryDx=0;entryDy=0;entryPerimeter=0;fontColor=light-dark(#000000,#EDEDED);labelBackgroundColor=none;" edge="1" parent="1" target="JrE_k6nqY89Hddkw8lCs-23">
          <mxGeometry width="50" height="50" relative="1" as="geometry">
            <mxPoint x="360" y="520" as="sourcePoint" />
            <mxPoint x="410" y="470" as="targetPoint" />
          </mxGeometry>
        </mxCell>
        <mxCell id="JrE_k6nqY89Hddkw8lCs-21" value="Read&lt;br&gt;Register 1" style="text;html=1;align=center;verticalAlign=middle;resizable=0;points=[];autosize=1;strokeColor=none;fillColor=none;fontColor=light-dark(#000000,#EDEDED);labelBackgroundColor=none;" vertex="1" parent="1">
          <mxGeometry x="425" y="410" width="80" height="40" as="geometry" />
        </mxCell>
        <mxCell id="JrE_k6nqY89Hddkw8lCs-22" value="Read&lt;br&gt;Register 2" style="text;html=1;align=center;verticalAlign=middle;resizable=0;points=[];autosize=1;strokeColor=none;fillColor=none;fontColor=light-dark(#000000,#EDEDED);labelBackgroundColor=none;" vertex="1" parent="1">
          <mxGeometry x="430" y="450" width="80" height="40" as="geometry" />
        </mxCell>
        <mxCell id="JrE_k6nqY89Hddkw8lCs-23" value="Write&lt;br&gt;Register&amp;nbsp;" style="text;html=1;align=center;verticalAlign=middle;resizable=0;points=[];autosize=1;strokeColor=none;fillColor=none;fontColor=light-dark(#000000,#EDEDED);labelBackgroundColor=none;" vertex="1" parent="1">
          <mxGeometry x="435" y="500" width="70" height="40" as="geometry" />
        </mxCell>
        <mxCell id="JrE_k6nqY89Hddkw8lCs-24" value="Write Data" style="text;html=1;align=center;verticalAlign=middle;resizable=0;points=[];autosize=1;strokeColor=none;fillColor=none;fontColor=light-dark(#000000,#EDEDED);labelBackgroundColor=none;" vertex="1" parent="1">
          <mxGeometry x="430" y="550" width="80" height="30" as="geometry" />
        </mxCell>
        <mxCell id="JrE_k6nqY89Hddkw8lCs-25" value="" style="endArrow=none;html=1;rounded=0;fontColor=light-dark(#000000,#EDEDED);labelBackgroundColor=none;" edge="1" parent="1">
          <mxGeometry width="50" height="50" relative="1" as="geometry">
            <mxPoint x="360" y="680" as="sourcePoint" />
            <mxPoint x="360" y="520" as="targetPoint" />
          </mxGeometry>
        </mxCell>
        <mxCell id="JrE_k6nqY89Hddkw8lCs-26" value="" style="endArrow=classic;html=1;rounded=0;fontColor=light-dark(#000000,#EDEDED);labelBackgroundColor=none;" edge="1" parent="1">
          <mxGeometry width="50" height="50" relative="1" as="geometry">
            <mxPoint x="360" y="680" as="sourcePoint" />
            <mxPoint x="440" y="680" as="targetPoint" />
          </mxGeometry>
        </mxCell>
        <mxCell id="JrE_k6nqY89Hddkw8lCs-27" value="Imm&lt;br&gt;Gen" style="ellipse;whiteSpace=wrap;html=1;fontColor=light-dark(#000000,#EDEDED);labelBackgroundColor=none;" vertex="1" parent="1">
          <mxGeometry x="440" y="620" width="70" height="110" as="geometry" />
        </mxCell>
        <mxCell id="JrE_k6nqY89Hddkw8lCs-28" value="Inst[6:0]" style="text;html=1;align=center;verticalAlign=middle;resizable=0;points=[];autosize=1;strokeColor=none;fillColor=none;fontColor=light-dark(#000000,#EDEDED);labelBackgroundColor=none;" vertex="1" parent="1">
          <mxGeometry x="360" y="210" width="70" height="30" as="geometry" />
        </mxCell>
        <mxCell id="JrE_k6nqY89Hddkw8lCs-29" value="Inst[19:15]" style="text;html=1;align=center;verticalAlign=middle;resizable=0;points=[];autosize=1;strokeColor=none;fillColor=none;fontColor=light-dark(#000000,#EDEDED);labelBackgroundColor=none;" vertex="1" parent="1">
          <mxGeometry x="355" y="400" width="80" height="30" as="geometry" />
        </mxCell>
        <mxCell id="JrE_k6nqY89Hddkw8lCs-30" value="Inst[24:20]" style="text;html=1;align=center;verticalAlign=middle;resizable=0;points=[];autosize=1;strokeColor=none;fillColor=none;fontColor=light-dark(#000000,#EDEDED);labelBackgroundColor=none;" vertex="1" parent="1">
          <mxGeometry x="355" y="450" width="80" height="30" as="geometry" />
        </mxCell>
        <mxCell id="JrE_k6nqY89Hddkw8lCs-31" value="Inst[11:7]" style="text;html=1;align=center;verticalAlign=middle;resizable=0;points=[];autosize=1;strokeColor=none;fillColor=none;fontColor=light-dark(#000000,#EDEDED);labelBackgroundColor=none;" vertex="1" parent="1">
          <mxGeometry x="360" y="490" width="70" height="30" as="geometry" />
        </mxCell>
        <mxCell id="JrE_k6nqY89Hddkw8lCs-32" value="Inst[31:0]" style="text;html=1;align=center;verticalAlign=middle;resizable=0;points=[];autosize=1;strokeColor=none;fillColor=none;fontColor=light-dark(#000000,#EDEDED);labelBackgroundColor=none;" vertex="1" parent="1">
          <mxGeometry x="365" y="650" width="70" height="30" as="geometry" />
        </mxCell>
        <mxCell id="JrE_k6nqY89Hddkw8lCs-34" value="" style="shape=stencil(tZXRjoIwEEW/pq+bQsPq6wb1PyqOS2NtSdvV3b93oGCs0I0IJISkc7mHIb1DCcttySsgKS0J25A0TSjFO66vT2tuKyicL164EXwvwSvWGX2Cqzi4liFUCUa4WmVbQr/wmfpieaGVQojQygbKg44wLhR66a+Hta//C1YV8s/gwLRNNtXd68yPbAFqskSnIbPre95OZ6KGvSaL7NQ81ORNJsuxEgsxy/e8OH0b/aMOfVdUO2oDA8JdFlL6AYt9YMXruesJnXzWF/h/moawnVsK9eC+/wxaP5sKWI0FPGWMTvOvx9qz0P+ZTfOzsf7Q/sL+FVLbaHKwHgkPHguDmWs8vcQ2VX+ONIUb);whiteSpace=wrap;html=1;fontColor=light-dark(#000000,#EDEDED);labelBackgroundColor=none;" vertex="1" parent="1">
          <mxGeometry x="720" y="430" width="70" height="140" as="geometry" />
        </mxCell>
        <mxCell id="JrE_k6nqY89Hddkw8lCs-35" value="Read&lt;br&gt;Data 1" style="text;html=1;align=center;verticalAlign=middle;resizable=0;points=[];autosize=1;strokeColor=none;fillColor=none;fontColor=light-dark(#000000,#EDEDED);labelBackgroundColor=none;" vertex="1" parent="1">
          <mxGeometry x="490" y="420" width="60" height="40" as="geometry" />
        </mxCell>
        <mxCell id="JrE_k6nqY89Hddkw8lCs-36" value="Read&lt;br&gt;Data 2" style="text;html=1;align=center;verticalAlign=middle;resizable=0;points=[];autosize=1;strokeColor=none;fillColor=none;fontColor=light-dark(#000000,#EDEDED);labelBackgroundColor=none;" vertex="1" parent="1">
          <mxGeometry x="490" y="480" width="60" height="40" as="geometry" />
        </mxCell>
        <mxCell id="JrE_k6nqY89Hddkw8lCs-37" value="MUX" style="rounded=1;whiteSpace=wrap;html=1;arcSize=50;rotation=90;direction=east;fontColor=light-dark(#000000,#EDEDED);labelBackgroundColor=none;" vertex="1" parent="1">
          <mxGeometry x="590" y="440" width="70" height="20" as="geometry" />
        </mxCell>
        <mxCell id="JrE_k6nqY89Hddkw8lCs-38" value="" style="endArrow=none;html=1;rounded=0;fontColor=light-dark(#000000,#EDEDED);labelBackgroundColor=none;" edge="1" parent="1">
          <mxGeometry width="50" height="50" relative="1" as="geometry">
            <mxPoint x="130" y="290" as="sourcePoint" />
            <mxPoint x="130" y="80" as="targetPoint" />
          </mxGeometry>
        </mxCell>
        <mxCell id="JrE_k6nqY89Hddkw8lCs-39" value="" style="endArrow=classic;html=1;rounded=0;fontColor=light-dark(#000000,#EDEDED);labelBackgroundColor=none;" edge="1" parent="1">
          <mxGeometry width="50" height="50" relative="1" as="geometry">
            <mxPoint x="130" y="80" as="sourcePoint" />
            <mxPoint x="240" y="80" as="targetPoint" />
          </mxGeometry>
        </mxCell>
        <mxCell id="JrE_k6nqY89Hddkw8lCs-40" value="" style="endArrow=classic;html=1;rounded=0;entryX=-0.061;entryY=0.841;entryDx=0;entryDy=0;entryPerimeter=0;fontColor=light-dark(#000000,#EDEDED);labelBackgroundColor=none;" edge="1" parent="1" target="JrE_k6nqY89Hddkw8lCs-41">
          <mxGeometry width="50" height="50" relative="1" as="geometry">
            <mxPoint x="160" y="160" as="sourcePoint" />
            <mxPoint x="230" y="160" as="targetPoint" />
          </mxGeometry>
        </mxCell>
        <mxCell id="JrE_k6nqY89Hddkw8lCs-41" value="" style="shape=stencil(tZXRjoIwEEW/pq+bQsPq6wb1PyqOS2NtSdvV3b93oGCs0I0IJISkc7mHIb1DCcttySsgKS0J25A0TSjFO66vT2tuKyicL164EXwvwSvWGX2Cqzi4liFUCUa4WmVbQr/wmfpieaGVQojQygbKg44wLhR66a+Hta//C1YV8s/gwLRNNtXd68yPbAFqskSnIbPre95OZ6KGvSaL7NQ81ORNJsuxEgsxy/e8OH0b/aMOfVdUO2oDA8JdFlL6AYt9YMXruesJnXzWF/h/moawnVsK9eC+/wxaP5sKWI0FPGWMTvOvx9qz0P+ZTfOzsf7Q/sL+FVLbaHKwHgkPHguDmWs8vcQ2VX+ONIUb);whiteSpace=wrap;html=1;fontColor=light-dark(#000000,#EDEDED);labelBackgroundColor=none;" vertex="1" parent="1">
          <mxGeometry x="240" y="60" width="80" height="120" as="geometry" />
        </mxCell>
        <mxCell id="JrE_k6nqY89Hddkw8lCs-42" value="4" style="text;html=1;align=center;verticalAlign=middle;resizable=0;points=[];autosize=1;strokeColor=none;fillColor=none;fontColor=light-dark(#000000,#EDEDED);labelBackgroundColor=none;" vertex="1" parent="1">
          <mxGeometry x="150" y="130" width="30" height="30" as="geometry" />
        </mxCell>
        <mxCell id="JrE_k6nqY89Hddkw8lCs-43" value="Adder" style="text;html=1;align=center;verticalAlign=middle;resizable=0;points=[];autosize=1;strokeColor=none;fillColor=none;fontColor=light-dark(#000000,#EDEDED);labelBackgroundColor=none;" vertex="1" parent="1">
          <mxGeometry x="270" y="105" width="60" height="30" as="geometry" />
        </mxCell>
        <mxCell id="JrE_k6nqY89Hddkw8lCs-45" value="" style="endArrow=none;html=1;rounded=0;fontColor=light-dark(#000000,#EDEDED);labelBackgroundColor=none;" edge="1" parent="1">
          <mxGeometry width="50" height="50" relative="1" as="geometry">
            <mxPoint x="320" y="120" as="sourcePoint" />
            <mxPoint x="400" y="120" as="targetPoint" />
          </mxGeometry>
        </mxCell>
        <mxCell id="JrE_k6nqY89Hddkw8lCs-46" value="" style="endArrow=none;html=1;rounded=0;fontColor=light-dark(#000000,#EDEDED);labelBackgroundColor=none;" edge="1" parent="1">
          <mxGeometry width="50" height="50" relative="1" as="geometry">
            <mxPoint x="400" y="120" as="sourcePoint" />
            <mxPoint x="400" y="80" as="targetPoint" />
          </mxGeometry>
        </mxCell>
        <mxCell id="JrE_k6nqY89Hddkw8lCs-47" value="" style="endArrow=classic;html=1;rounded=0;fontColor=light-dark(#000000,#EDEDED);labelBackgroundColor=none;" edge="1" parent="1">
          <mxGeometry width="50" height="50" relative="1" as="geometry">
            <mxPoint x="400" y="80" as="sourcePoint" />
            <mxPoint x="880" y="80" as="targetPoint" />
          </mxGeometry>
        </mxCell>
        <mxCell id="JrE_k6nqY89Hddkw8lCs-48" value="" style="endArrow=none;html=1;rounded=0;fontColor=light-dark(#000000,#EDEDED);labelBackgroundColor=none;" edge="1" parent="1">
          <mxGeometry width="50" height="50" relative="1" as="geometry">
            <mxPoint x="130" y="200" as="sourcePoint" />
            <mxPoint x="400" y="200" as="targetPoint" />
          </mxGeometry>
        </mxCell>
        <mxCell id="JrE_k6nqY89Hddkw8lCs-49" value="" style="endArrow=none;html=1;rounded=0;fontColor=light-dark(#000000,#EDEDED);labelBackgroundColor=none;" edge="1" parent="1">
          <mxGeometry width="50" height="50" relative="1" as="geometry">
            <mxPoint x="400" y="200" as="sourcePoint" />
            <mxPoint x="399.62" y="135" as="targetPoint" />
          </mxGeometry>
        </mxCell>
        <mxCell id="JrE_k6nqY89Hddkw8lCs-51" value="" style="endArrow=none;html=1;rounded=0;fontColor=light-dark(#000000,#EDEDED);labelBackgroundColor=none;" edge="1" parent="1">
          <mxGeometry width="50" height="50" relative="1" as="geometry">
            <mxPoint x="510" y="680" as="sourcePoint" />
            <mxPoint x="580" y="680" as="targetPoint" />
          </mxGeometry>
        </mxCell>
        <mxCell id="JrE_k6nqY89Hddkw8lCs-52" value="" style="endArrow=none;html=1;rounded=0;fontColor=light-dark(#000000,#EDEDED);labelBackgroundColor=none;" edge="1" parent="1">
          <mxGeometry width="50" height="50" relative="1" as="geometry">
            <mxPoint x="580" y="680" as="sourcePoint" />
            <mxPoint x="580" y="180" as="targetPoint" />
          </mxGeometry>
        </mxCell>
        <mxCell id="JrE_k6nqY89Hddkw8lCs-53" value="" style="endArrow=classic;html=1;rounded=0;fontColor=light-dark(#000000,#EDEDED);labelBackgroundColor=none;" edge="1" parent="1">
          <mxGeometry width="50" height="50" relative="1" as="geometry">
            <mxPoint x="400" y="135" as="sourcePoint" />
            <mxPoint x="740" y="135" as="targetPoint" />
          </mxGeometry>
        </mxCell>
        <mxCell id="JrE_k6nqY89Hddkw8lCs-54" value="" style="endArrow=classic;html=1;rounded=0;fontColor=light-dark(#000000,#EDEDED);labelBackgroundColor=none;" edge="1" parent="1">
          <mxGeometry width="50" height="50" relative="1" as="geometry">
            <mxPoint x="580" y="180" as="sourcePoint" />
            <mxPoint x="640" y="180" as="targetPoint" />
          </mxGeometry>
        </mxCell>
        <mxCell id="JrE_k6nqY89Hddkw8lCs-55" value="Shift&lt;br&gt;Left 1" style="ellipse;whiteSpace=wrap;html=1;fontColor=light-dark(#000000,#EDEDED);labelBackgroundColor=none;" vertex="1" parent="1">
          <mxGeometry x="640" y="140" width="50" height="70" as="geometry" />
        </mxCell>
        <mxCell id="JrE_k6nqY89Hddkw8lCs-57" value="" style="shape=stencil(tZXRjoIwEEW/pq+bQsPq6wb1PyqOS2NtSdvV3b93oGCs0I0IJISkc7mHIb1DCcttySsgKS0J25A0TSjFO66vT2tuKyicL164EXwvwSvWGX2Cqzi4liFUCUa4WmVbQr/wmfpieaGVQojQygbKg44wLhR66a+Hta//C1YV8s/gwLRNNtXd68yPbAFqskSnIbPre95OZ6KGvSaL7NQ81ORNJsuxEgsxy/e8OH0b/aMOfVdUO2oDA8JdFlL6AYt9YMXruesJnXzWF/h/moawnVsK9eC+/wxaP5sKWI0FPGWMTvOvx9qz0P+ZTfOzsf7Q/sL+FVLbaHKwHgkPHguDmWs8vcQ2VX+ONIUb);whiteSpace=wrap;html=1;fontColor=light-dark(#000000,#EDEDED);labelBackgroundColor=none;" vertex="1" parent="1">
          <mxGeometry x="740" y="130" width="70" height="80" as="geometry" />
        </mxCell>
        <mxCell id="JrE_k6nqY89Hddkw8lCs-58" value="" style="endArrow=none;html=1;rounded=0;fontColor=light-dark(#000000,#EDEDED);labelBackgroundColor=none;" edge="1" parent="1">
          <mxGeometry width="50" height="50" relative="1" as="geometry">
            <mxPoint x="690" y="180" as="sourcePoint" />
            <mxPoint x="710" y="180" as="targetPoint" />
          </mxGeometry>
        </mxCell>
        <mxCell id="JrE_k6nqY89Hddkw8lCs-59" value="" style="endArrow=none;html=1;rounded=0;fontColor=light-dark(#000000,#EDEDED);labelBackgroundColor=none;" edge="1" parent="1">
          <mxGeometry width="50" height="50" relative="1" as="geometry">
            <mxPoint x="710" y="200" as="sourcePoint" />
            <mxPoint x="710" y="180" as="targetPoint" />
          </mxGeometry>
        </mxCell>
        <mxCell id="JrE_k6nqY89Hddkw8lCs-60" value="" style="endArrow=classic;html=1;rounded=0;entryX=0;entryY=0.875;entryDx=0;entryDy=0;entryPerimeter=0;fontColor=light-dark(#000000,#EDEDED);labelBackgroundColor=none;" edge="1" parent="1" target="JrE_k6nqY89Hddkw8lCs-57">
          <mxGeometry width="50" height="50" relative="1" as="geometry">
            <mxPoint x="710" y="200" as="sourcePoint" />
            <mxPoint x="740" y="190" as="targetPoint" />
          </mxGeometry>
        </mxCell>
        <mxCell id="JrE_k6nqY89Hddkw8lCs-61" value="Adder" style="text;html=1;align=center;verticalAlign=middle;resizable=0;points=[];autosize=1;strokeColor=none;fillColor=none;fontColor=light-dark(#000000,#EDEDED);labelBackgroundColor=none;" vertex="1" parent="1">
          <mxGeometry x="760" y="155" width="60" height="30" as="geometry" />
        </mxCell>
        <mxCell id="JrE_k6nqY89Hddkw8lCs-63" value="" style="endArrow=classic;html=1;rounded=0;entryX=0.346;entryY=0.983;entryDx=0;entryDy=0;entryPerimeter=0;fontColor=light-dark(#000000,#EDEDED);labelBackgroundColor=none;" edge="1" parent="1" target="JrE_k6nqY89Hddkw8lCs-37">
          <mxGeometry width="50" height="50" relative="1" as="geometry">
            <mxPoint x="550" y="440" as="sourcePoint" />
            <mxPoint x="620" y="440" as="targetPoint" />
          </mxGeometry>
        </mxCell>
        <mxCell id="JrE_k6nqY89Hddkw8lCs-64" value="" style="endArrow=none;html=1;rounded=0;fontColor=light-dark(#000000,#EDEDED);labelBackgroundColor=none;" edge="1" parent="1">
          <mxGeometry width="50" height="50" relative="1" as="geometry">
            <mxPoint x="340" y="320" as="sourcePoint" />
            <mxPoint x="340" y="200" as="targetPoint" />
          </mxGeometry>
        </mxCell>
        <mxCell id="JrE_k6nqY89Hddkw8lCs-66" value="" style="endArrow=none;html=1;rounded=0;fontColor=light-dark(#000000,#EDEDED);labelBackgroundColor=none;" edge="1" parent="1">
          <mxGeometry width="50" height="50" relative="1" as="geometry">
            <mxPoint x="340" y="320" as="sourcePoint" />
            <mxPoint x="420" y="320" as="targetPoint" />
          </mxGeometry>
        </mxCell>
        <mxCell id="JrE_k6nqY89Hddkw8lCs-67" value="" style="endArrow=none;html=1;rounded=0;fontColor=light-dark(#000000,#EDEDED);labelBackgroundColor=none;" edge="1" parent="1">
          <mxGeometry width="50" height="50" relative="1" as="geometry">
            <mxPoint x="420" y="360" as="sourcePoint" />
            <mxPoint x="420" y="320" as="targetPoint" />
          </mxGeometry>
        </mxCell>
        <mxCell id="JrE_k6nqY89Hddkw8lCs-68" value="" style="endArrow=none;html=1;rounded=0;fontColor=light-dark(#000000,#EDEDED);labelBackgroundColor=none;" edge="1" parent="1">
          <mxGeometry width="50" height="50" relative="1" as="geometry">
            <mxPoint x="420" y="360" as="sourcePoint" />
            <mxPoint x="600" y="360" as="targetPoint" />
          </mxGeometry>
        </mxCell>
        <mxCell id="JrE_k6nqY89Hddkw8lCs-69" value="" style="endArrow=none;html=1;rounded=0;fontColor=light-dark(#000000,#EDEDED);labelBackgroundColor=none;" edge="1" parent="1">
          <mxGeometry width="50" height="50" relative="1" as="geometry">
            <mxPoint x="600" y="470" as="sourcePoint" />
            <mxPoint x="600" y="360" as="targetPoint" />
          </mxGeometry>
        </mxCell>
        <mxCell id="JrE_k6nqY89Hddkw8lCs-70" value="" style="endArrow=classic;html=1;rounded=0;fontColor=light-dark(#000000,#EDEDED);labelBackgroundColor=none;" edge="1" parent="1">
          <mxGeometry width="50" height="50" relative="1" as="geometry">
            <mxPoint x="600" y="470" as="sourcePoint" />
            <mxPoint x="620" y="470" as="targetPoint" />
          </mxGeometry>
        </mxCell>
        <mxCell id="JrE_k6nqY89Hddkw8lCs-71" value="MUX" style="rounded=1;whiteSpace=wrap;html=1;arcSize=50;rotation=90;direction=east;fontColor=light-dark(#000000,#EDEDED);labelBackgroundColor=none;" vertex="1" parent="1">
          <mxGeometry x="630" y="530" width="70" height="20" as="geometry" />
        </mxCell>
        <mxCell id="JrE_k6nqY89Hddkw8lCs-72" value="" style="endArrow=classic;html=1;rounded=0;entryX=0.934;entryY=0.877;entryDx=0;entryDy=0;entryPerimeter=0;fontColor=light-dark(#000000,#EDEDED);labelBackgroundColor=none;" edge="1" parent="1" target="JrE_k6nqY89Hddkw8lCs-71">
          <mxGeometry width="50" height="50" relative="1" as="geometry">
            <mxPoint x="580" y="570" as="sourcePoint" />
            <mxPoint x="630" y="520" as="targetPoint" />
          </mxGeometry>
        </mxCell>
        <mxCell id="JrE_k6nqY89Hddkw8lCs-73" value="&lt;font style=&quot;font-size: 8px;&quot;&gt;Shift&lt;br&gt;Left 12&lt;/font&gt;" style="ellipse;whiteSpace=wrap;html=1;fontColor=light-dark(#000000,#EDEDED);labelBackgroundColor=none;" vertex="1" parent="1">
          <mxGeometry x="600" y="520" width="30" height="40" as="geometry" />
        </mxCell>
        <mxCell id="JrE_k6nqY89Hddkw8lCs-74" value="" style="endArrow=classic;html=1;rounded=0;entryX=0;entryY=0.5;entryDx=0;entryDy=0;fontColor=light-dark(#000000,#EDEDED);labelBackgroundColor=none;" edge="1" parent="1" target="JrE_k6nqY89Hddkw8lCs-73">
          <mxGeometry width="50" height="50" relative="1" as="geometry">
            <mxPoint x="580" y="540" as="sourcePoint" />
            <mxPoint x="630" y="490" as="targetPoint" />
          </mxGeometry>
        </mxCell>
        <mxCell id="JrE_k6nqY89Hddkw8lCs-75" value="" style="endArrow=classic;html=1;rounded=0;entryX=0.5;entryY=1;entryDx=0;entryDy=0;exitX=1;exitY=0.5;exitDx=0;exitDy=0;fontColor=light-dark(#000000,#EDEDED);labelBackgroundColor=none;" edge="1" parent="1" source="JrE_k6nqY89Hddkw8lCs-73" target="JrE_k6nqY89Hddkw8lCs-71">
          <mxGeometry width="50" height="50" relative="1" as="geometry">
            <mxPoint x="630" y="545" as="sourcePoint" />
            <mxPoint x="680" y="495" as="targetPoint" />
          </mxGeometry>
        </mxCell>
        <mxCell id="JrE_k6nqY89Hddkw8lCs-76" value="" style="endArrow=classic;html=1;rounded=0;entryX=0.071;entryY=0.75;entryDx=0;entryDy=0;entryPerimeter=0;fontColor=light-dark(#000000,#EDEDED);labelBackgroundColor=none;" edge="1" parent="1" target="JrE_k6nqY89Hddkw8lCs-71">
          <mxGeometry width="50" height="50" relative="1" as="geometry">
            <mxPoint x="550" y="510" as="sourcePoint" />
            <mxPoint x="600" y="460" as="targetPoint" />
          </mxGeometry>
        </mxCell>
        <mxCell id="JrE_k6nqY89Hddkw8lCs-77" value="ALU" style="text;html=1;align=center;verticalAlign=middle;resizable=0;points=[];autosize=1;strokeColor=none;fillColor=none;fontColor=light-dark(#000000,#EDEDED);labelBackgroundColor=none;" vertex="1" parent="1">
          <mxGeometry x="750" y="485" width="50" height="30" as="geometry" />
        </mxCell>
        <mxCell id="JrE_k6nqY89Hddkw8lCs-78" value="" style="endArrow=classic;html=1;rounded=0;exitX=0.5;exitY=0;exitDx=0;exitDy=0;entryX=-0.016;entryY=0.143;entryDx=0;entryDy=0;entryPerimeter=0;fontColor=light-dark(#000000,#EDEDED);labelBackgroundColor=none;" edge="1" parent="1" source="JrE_k6nqY89Hddkw8lCs-37" target="JrE_k6nqY89Hddkw8lCs-34">
          <mxGeometry width="50" height="50" relative="1" as="geometry">
            <mxPoint x="640" y="450" as="sourcePoint" />
            <mxPoint x="690" y="400" as="targetPoint" />
          </mxGeometry>
        </mxCell>
        <mxCell id="JrE_k6nqY89Hddkw8lCs-79" value="" style="endArrow=classic;html=1;rounded=0;exitX=0.5;exitY=0;exitDx=0;exitDy=0;entryX=-0.012;entryY=0.791;entryDx=0;entryDy=0;entryPerimeter=0;fontColor=light-dark(#000000,#EDEDED);labelBackgroundColor=none;" edge="1" parent="1" source="JrE_k6nqY89Hddkw8lCs-71" target="JrE_k6nqY89Hddkw8lCs-34">
          <mxGeometry width="50" height="50" relative="1" as="geometry">
            <mxPoint x="680" y="540.45" as="sourcePoint" />
            <mxPoint x="710" y="540" as="targetPoint" />
          </mxGeometry>
        </mxCell>
        <mxCell id="JrE_k6nqY89Hddkw8lCs-80" value="" style="rounded=0;whiteSpace=wrap;html=1;fontColor=light-dark(#000000,#EDEDED);labelBackgroundColor=none;" vertex="1" parent="1">
          <mxGeometry x="860" y="450" width="120" height="140" as="geometry" />
        </mxCell>
        <mxCell id="JrE_k6nqY89Hddkw8lCs-81" value="" style="endArrow=classic;html=1;rounded=0;entryX=-0.034;entryY=0.357;entryDx=0;entryDy=0;entryPerimeter=0;fontColor=light-dark(#000000,#EDEDED);labelBackgroundColor=none;" edge="1" parent="1" target="JrE_k6nqY89Hddkw8lCs-80">
          <mxGeometry width="50" height="50" relative="1" as="geometry">
            <mxPoint x="790" y="500" as="sourcePoint" />
            <mxPoint x="840" y="450" as="targetPoint" />
          </mxGeometry>
        </mxCell>
        <mxCell id="JrE_k6nqY89Hddkw8lCs-82" value="Address" style="text;html=1;align=center;verticalAlign=middle;resizable=0;points=[];autosize=1;strokeColor=none;fillColor=none;fontColor=light-dark(#000000,#EDEDED);labelBackgroundColor=none;" vertex="1" parent="1">
          <mxGeometry x="850" y="485" width="70" height="30" as="geometry" />
        </mxCell>
        <mxCell id="JrE_k6nqY89Hddkw8lCs-83" value="Write&lt;br&gt;Data" style="text;html=1;align=center;verticalAlign=middle;resizable=0;points=[];autosize=1;strokeColor=none;fillColor=none;fontColor=light-dark(#000000,#EDEDED);labelBackgroundColor=none;" vertex="1" parent="1">
          <mxGeometry x="860" y="530" width="50" height="40" as="geometry" />
        </mxCell>
        <mxCell id="JrE_k6nqY89Hddkw8lCs-84" value="Read&lt;div&gt;Data&lt;/div&gt;" style="text;html=1;align=center;verticalAlign=middle;resizable=0;points=[];autosize=1;strokeColor=none;fillColor=none;fontColor=light-dark(#000000,#EDEDED);labelBackgroundColor=none;" vertex="1" parent="1">
          <mxGeometry x="930" y="475" width="50" height="40" as="geometry" />
        </mxCell>
        <mxCell id="JrE_k6nqY89Hddkw8lCs-85" value="Data&lt;br&gt;Memory" style="text;html=1;align=center;verticalAlign=middle;resizable=0;points=[];autosize=1;strokeColor=none;fillColor=none;fontColor=light-dark(#000000,#EDEDED);labelBackgroundColor=none;" vertex="1" parent="1">
          <mxGeometry x="920" y="530" width="70" height="40" as="geometry" />
        </mxCell>
        <mxCell id="JrE_k6nqY89Hddkw8lCs-86" value="" style="endArrow=none;html=1;rounded=0;fontColor=light-dark(#000000,#EDEDED);labelBackgroundColor=none;" edge="1" parent="1">
          <mxGeometry width="50" height="50" relative="1" as="geometry">
            <mxPoint x="570" y="600" as="sourcePoint" />
            <mxPoint x="570" y="510" as="targetPoint" />
          </mxGeometry>
        </mxCell>
        <mxCell id="JrE_k6nqY89Hddkw8lCs-87" value="" style="endArrow=none;html=1;rounded=0;fontColor=light-dark(#000000,#EDEDED);labelBackgroundColor=none;" edge="1" parent="1">
          <mxGeometry width="50" height="50" relative="1" as="geometry">
            <mxPoint x="570" y="600" as="sourcePoint" />
            <mxPoint x="840" y="600" as="targetPoint" />
          </mxGeometry>
        </mxCell>
        <mxCell id="JrE_k6nqY89Hddkw8lCs-88" value="" style="endArrow=none;html=1;rounded=0;fontColor=light-dark(#000000,#EDEDED);labelBackgroundColor=none;" edge="1" parent="1">
          <mxGeometry width="50" height="50" relative="1" as="geometry">
            <mxPoint x="840" y="600" as="sourcePoint" />
            <mxPoint x="840" y="560" as="targetPoint" />
          </mxGeometry>
        </mxCell>
        <mxCell id="JrE_k6nqY89Hddkw8lCs-89" value="" style="endArrow=classic;html=1;rounded=0;entryX=0;entryY=0.75;entryDx=0;entryDy=0;entryPerimeter=0;fontColor=light-dark(#000000,#EDEDED);labelBackgroundColor=none;" edge="1" parent="1" target="JrE_k6nqY89Hddkw8lCs-83">
          <mxGeometry width="50" height="50" relative="1" as="geometry">
            <mxPoint x="840" y="560" as="sourcePoint" />
            <mxPoint x="890" y="510" as="targetPoint" />
          </mxGeometry>
        </mxCell>
        <mxCell id="JrE_k6nqY89Hddkw8lCs-90" value="" style="endArrow=classic;html=1;rounded=0;fontColor=light-dark(#000000,#EDEDED);labelBackgroundColor=none;" edge="1" parent="1">
          <mxGeometry width="50" height="50" relative="1" as="geometry">
            <mxPoint x="980" y="500" as="sourcePoint" />
            <mxPoint x="1030" y="500" as="targetPoint" />
          </mxGeometry>
        </mxCell>
        <mxCell id="JrE_k6nqY89Hddkw8lCs-91" value="&lt;font style=&quot;font-size: 9px;&quot;&gt;Sign/Zero&lt;br&gt;Extender&lt;/font&gt;" style="rounded=0;whiteSpace=wrap;html=1;fontColor=light-dark(#000000,#EDEDED);labelBackgroundColor=none;" vertex="1" parent="1">
          <mxGeometry x="1030" y="475" width="50" height="50" as="geometry" />
        </mxCell>
        <mxCell id="JrE_k6nqY89Hddkw8lCs-92" value="" style="endArrow=none;html=1;rounded=0;fontColor=light-dark(#000000,#EDEDED);labelBackgroundColor=none;" edge="1" parent="1">
          <mxGeometry width="50" height="50" relative="1" as="geometry">
            <mxPoint x="1080" y="500" as="sourcePoint" />
            <mxPoint x="1140" y="500" as="targetPoint" />
          </mxGeometry>
        </mxCell>
        <mxCell id="JrE_k6nqY89Hddkw8lCs-93" value="" style="endArrow=none;html=1;rounded=0;fontColor=light-dark(#000000,#EDEDED);labelBackgroundColor=none;" edge="1" parent="1">
          <mxGeometry width="50" height="50" relative="1" as="geometry">
            <mxPoint x="1140" y="830" as="sourcePoint" />
            <mxPoint x="1140" y="500" as="targetPoint" />
          </mxGeometry>
        </mxCell>
        <mxCell id="JrE_k6nqY89Hddkw8lCs-95" value="" style="endArrow=none;html=1;rounded=0;fontColor=light-dark(#000000,#EDEDED);labelBackgroundColor=none;" edge="1" parent="1">
          <mxGeometry width="50" height="50" relative="1" as="geometry">
            <mxPoint x="820" y="770" as="sourcePoint" />
            <mxPoint x="820" y="500" as="targetPoint" />
          </mxGeometry>
        </mxCell>
        <mxCell id="JrE_k6nqY89Hddkw8lCs-96" value="" style="endArrow=none;html=1;rounded=0;fontColor=light-dark(#000000,#EDEDED);labelBackgroundColor=none;" edge="1" parent="1">
          <mxGeometry width="50" height="50" relative="1" as="geometry">
            <mxPoint x="820" y="770" as="sourcePoint" />
            <mxPoint x="820" y="770" as="targetPoint" />
            <Array as="points">
              <mxPoint x="820" y="800" />
            </Array>
          </mxGeometry>
        </mxCell>
        <mxCell id="JrE_k6nqY89Hddkw8lCs-97" value="" style="endArrow=none;html=1;rounded=0;fontColor=light-dark(#000000,#EDEDED);labelBackgroundColor=none;" edge="1" parent="1">
          <mxGeometry width="50" height="50" relative="1" as="geometry">
            <mxPoint x="640" y="740" as="sourcePoint" />
            <mxPoint x="640" y="540" as="targetPoint" />
          </mxGeometry>
        </mxCell>
        <mxCell id="JrE_k6nqY89Hddkw8lCs-99" value="MUX" style="rounded=1;whiteSpace=wrap;html=1;arcSize=50;rotation=90;direction=east;fontColor=light-dark(#000000,#EDEDED);labelBackgroundColor=none;" vertex="1" parent="1">
          <mxGeometry x="360" y="780" width="110" height="20" as="geometry" />
        </mxCell>
        <mxCell id="JrE_k6nqY89Hddkw8lCs-100" value="" style="endArrow=none;html=1;rounded=0;fontColor=light-dark(#000000,#EDEDED);labelBackgroundColor=none;" edge="1" parent="1">
          <mxGeometry width="50" height="50" relative="1" as="geometry">
            <mxPoint x="320" y="789.75" as="sourcePoint" />
            <mxPoint x="405" y="789.75" as="targetPoint" />
          </mxGeometry>
        </mxCell>
        <mxCell id="JrE_k6nqY89Hddkw8lCs-101" value="" style="endArrow=none;html=1;rounded=0;fontColor=light-dark(#000000,#EDEDED);labelBackgroundColor=none;" edge="1" parent="1">
          <mxGeometry width="50" height="50" relative="1" as="geometry">
            <mxPoint x="620" y="350" as="sourcePoint" />
            <mxPoint x="620" y="80" as="targetPoint" />
          </mxGeometry>
        </mxCell>
        <mxCell id="JrE_k6nqY89Hddkw8lCs-102" value="" style="endArrow=none;html=1;rounded=0;fontColor=light-dark(#000000,#EDEDED);labelBackgroundColor=none;" edge="1" parent="1">
          <mxGeometry width="50" height="50" relative="1" as="geometry">
            <mxPoint x="620" y="350" as="sourcePoint" />
            <mxPoint x="690" y="350" as="targetPoint" />
          </mxGeometry>
        </mxCell>
        <mxCell id="JrE_k6nqY89Hddkw8lCs-103" value="" style="endArrow=none;html=1;rounded=0;fontColor=light-dark(#000000,#EDEDED);labelBackgroundColor=none;" edge="1" parent="1">
          <mxGeometry width="50" height="50" relative="1" as="geometry">
            <mxPoint x="690" y="770" as="sourcePoint" />
            <mxPoint x="690" y="350" as="targetPoint" />
          </mxGeometry>
        </mxCell>
        <mxCell id="JrE_k6nqY89Hddkw8lCs-106" value="" style="endArrow=none;html=1;rounded=0;fontColor=light-dark(#000000,#EDEDED);labelBackgroundColor=none;" edge="1" parent="1">
          <mxGeometry width="50" height="50" relative="1" as="geometry">
            <mxPoint x="320" y="790" as="sourcePoint" />
            <mxPoint x="320" y="560" as="targetPoint" />
          </mxGeometry>
        </mxCell>
        <mxCell id="JrE_k6nqY89Hddkw8lCs-108" value="" style="endArrow=classic;html=1;rounded=0;entryX=0;entryY=0.333;entryDx=0;entryDy=0;entryPerimeter=0;fontColor=light-dark(#000000,#EDEDED);labelBackgroundColor=none;" edge="1" parent="1" target="JrE_k6nqY89Hddkw8lCs-24">
          <mxGeometry width="50" height="50" relative="1" as="geometry">
            <mxPoint x="320" y="560" as="sourcePoint" />
            <mxPoint x="370" y="510" as="targetPoint" />
          </mxGeometry>
        </mxCell>
        <mxCell id="JrE_k6nqY89Hddkw8lCs-109" value="" style="endArrow=classic;html=1;rounded=0;fontColor=light-dark(#000000,#EDEDED);labelBackgroundColor=none;" edge="1" parent="1">
          <mxGeometry width="50" height="50" relative="1" as="geometry">
            <mxPoint x="640" y="740" as="sourcePoint" />
            <mxPoint x="430" y="741" as="targetPoint" />
          </mxGeometry>
        </mxCell>
        <mxCell id="JrE_k6nqY89Hddkw8lCs-110" value="" style="endArrow=classic;html=1;rounded=0;fontColor=light-dark(#000000,#EDEDED);labelBackgroundColor=none;" edge="1" parent="1">
          <mxGeometry width="50" height="50" relative="1" as="geometry">
            <mxPoint x="690" y="770" as="sourcePoint" />
            <mxPoint x="430" y="772" as="targetPoint" />
          </mxGeometry>
        </mxCell>
        <mxCell id="JrE_k6nqY89Hddkw8lCs-111" value="" style="endArrow=classic;html=1;rounded=0;entryX=0.591;entryY=-0.25;entryDx=0;entryDy=0;entryPerimeter=0;fontColor=light-dark(#000000,#EDEDED);labelBackgroundColor=none;" edge="1" parent="1" target="JrE_k6nqY89Hddkw8lCs-99">
          <mxGeometry width="50" height="50" relative="1" as="geometry">
            <mxPoint x="820" y="800" as="sourcePoint" />
            <mxPoint x="870" y="750" as="targetPoint" />
          </mxGeometry>
        </mxCell>
        <mxCell id="JrE_k6nqY89Hddkw8lCs-112" value="" style="endArrow=classic;html=1;rounded=0;fontColor=light-dark(#000000,#EDEDED);labelBackgroundColor=none;" edge="1" parent="1">
          <mxGeometry width="50" height="50" relative="1" as="geometry">
            <mxPoint x="1140" y="830" as="sourcePoint" />
            <mxPoint x="430" y="830" as="targetPoint" />
          </mxGeometry>
        </mxCell>
        <mxCell id="JrE_k6nqY89Hddkw8lCs-113" value="" style="endArrow=none;html=1;rounded=0;fillColor=#1ba1e2;strokeColor=#006EAF;exitX=0.756;exitY=0.938;exitDx=0;exitDy=0;exitPerimeter=0;fontColor=light-dark(#000000,#EDEDED);labelBackgroundColor=none;" edge="1" parent="1" source="JrE_k6nqY89Hddkw8lCs-12">
          <mxGeometry width="50" height="50" relative="1" as="geometry">
            <mxPoint x="530" y="310" as="sourcePoint" />
            <mxPoint x="600" y="310" as="targetPoint" />
          </mxGeometry>
        </mxCell>
        <mxCell id="JrE_k6nqY89Hddkw8lCs-114" value="ALUSrc1" style="text;html=1;align=center;verticalAlign=middle;resizable=0;points=[];autosize=1;fontSize=5;rounded=0;glass=0;labelBackgroundColor=none;fontColor=light-dark(#000000,#EDEDED);" vertex="1" parent="1">
          <mxGeometry x="525" y="295" width="40" height="20" as="geometry" />
        </mxCell>
        <mxCell id="JrE_k6nqY89Hddkw8lCs-116" value="" style="endArrow=none;html=1;rounded=0;fillColor=#1ba1e2;strokeColor=#006EAF;fontColor=light-dark(#000000,#EDEDED);labelBackgroundColor=none;" edge="1" parent="1">
          <mxGeometry width="50" height="50" relative="1" as="geometry">
            <mxPoint x="600" y="310" as="sourcePoint" />
            <mxPoint x="600" y="350" as="targetPoint" />
          </mxGeometry>
        </mxCell>
        <mxCell id="JrE_k6nqY89Hddkw8lCs-117" value="" style="endArrow=none;html=1;rounded=0;fillColor=#1ba1e2;strokeColor=#006EAF;fontColor=light-dark(#000000,#EDEDED);labelBackgroundColor=none;" edge="1" parent="1">
          <mxGeometry width="50" height="50" relative="1" as="geometry">
            <mxPoint x="600" y="350" as="sourcePoint" />
            <mxPoint x="610" y="350" as="targetPoint" />
          </mxGeometry>
        </mxCell>
        <mxCell id="JrE_k6nqY89Hddkw8lCs-118" value="" style="endArrow=none;html=1;rounded=0;fillColor=#1ba1e2;strokeColor=#006EAF;fontColor=light-dark(#000000,#EDEDED);labelBackgroundColor=none;" edge="1" parent="1">
          <mxGeometry width="50" height="50" relative="1" as="geometry">
            <mxPoint x="610" y="350" as="sourcePoint" />
            <mxPoint x="610" y="360" as="targetPoint" />
          </mxGeometry>
        </mxCell>
        <mxCell id="JrE_k6nqY89Hddkw8lCs-119" value="" style="endArrow=none;html=1;rounded=0;fillColor=#1ba1e2;strokeColor=#006EAF;fontColor=light-dark(#000000,#EDEDED);labelBackgroundColor=none;" edge="1" parent="1">
          <mxGeometry width="50" height="50" relative="1" as="geometry">
            <mxPoint x="610" y="360" as="sourcePoint" />
            <mxPoint x="620" y="360" as="targetPoint" />
            <Array as="points" />
          </mxGeometry>
        </mxCell>
        <mxCell id="JrE_k6nqY89Hddkw8lCs-121" value="" style="endArrow=none;html=1;rounded=0;fillColor=#1ba1e2;strokeColor=#006EAF;entryX=0;entryY=0.75;entryDx=0;entryDy=0;fontColor=light-dark(#000000,#EDEDED);labelBackgroundColor=none;" edge="1" parent="1" target="JrE_k6nqY89Hddkw8lCs-37">
          <mxGeometry width="50" height="50" relative="1" as="geometry">
            <mxPoint x="620" y="360" as="sourcePoint" />
            <mxPoint x="620" y="370" as="targetPoint" />
            <Array as="points" />
          </mxGeometry>
        </mxCell>
        <mxCell id="JrE_k6nqY89Hddkw8lCs-123" value="" style="endArrow=none;html=1;rounded=0;fillColor=#1ba1e2;strokeColor=#006EAF;exitX=0.756;exitY=0.938;exitDx=0;exitDy=0;exitPerimeter=0;strokeWidth=2;fontColor=light-dark(#000000,#EDEDED);labelBackgroundColor=none;" edge="1" parent="1">
          <mxGeometry width="50" height="50" relative="1" as="geometry">
            <mxPoint x="530" y="299.81" as="sourcePoint" />
            <mxPoint x="660" y="300" as="targetPoint" />
          </mxGeometry>
        </mxCell>
        <mxCell id="JrE_k6nqY89Hddkw8lCs-125" value="" style="endArrow=none;html=1;rounded=0;fillColor=#1ba1e2;strokeColor=#006EAF;entryX=0;entryY=0.75;entryDx=0;entryDy=0;strokeWidth=2;fontColor=light-dark(#000000,#EDEDED);labelBackgroundColor=none;" edge="1" parent="1" target="JrE_k6nqY89Hddkw8lCs-71">
          <mxGeometry width="50" height="50" relative="1" as="geometry">
            <mxPoint x="660" y="300" as="sourcePoint" />
            <mxPoint x="660" y="500" as="targetPoint" />
          </mxGeometry>
        </mxCell>
        <mxCell id="JrE_k6nqY89Hddkw8lCs-126" value="ALUSrc2" style="text;html=1;align=center;verticalAlign=middle;resizable=0;points=[];autosize=1;fontSize=5;rounded=0;glass=0;labelBackgroundColor=none;fontColor=light-dark(#000000,#EDEDED);strokeWidth=1;" vertex="1" parent="1">
          <mxGeometry x="535" y="280" width="40" height="20" as="geometry" />
        </mxCell>
        <mxCell id="JrE_k6nqY89Hddkw8lCs-127" value="" style="endArrow=none;html=1;rounded=0;fillColor=#1ba1e2;strokeColor=#006EAF;exitX=0.756;exitY=0.938;exitDx=0;exitDy=0;exitPerimeter=0;fontColor=light-dark(#000000,#EDEDED);labelBackgroundColor=none;" edge="1" parent="1">
          <mxGeometry width="50" height="50" relative="1" as="geometry">
            <mxPoint x="540" y="280" as="sourcePoint" />
            <mxPoint x="920" y="280" as="targetPoint" />
          </mxGeometry>
        </mxCell>
        <mxCell id="JrE_k6nqY89Hddkw8lCs-129" value="" style="endArrow=none;html=1;rounded=0;fillColor=#1ba1e2;strokeColor=#006EAF;entryX=0.5;entryY=0;entryDx=0;entryDy=0;fontColor=light-dark(#000000,#EDEDED);labelBackgroundColor=none;" edge="1" parent="1" target="JrE_k6nqY89Hddkw8lCs-80">
          <mxGeometry width="50" height="50" relative="1" as="geometry">
            <mxPoint x="920" y="280" as="sourcePoint" />
            <mxPoint x="920" y="440" as="targetPoint" />
          </mxGeometry>
        </mxCell>
        <mxCell id="JrE_k6nqY89Hddkw8lCs-130" value="MemWrite" style="text;html=1;align=center;verticalAlign=middle;resizable=0;points=[];autosize=1;fontSize=5;rounded=0;glass=0;labelBackgroundColor=none;fontColor=light-dark(#000000,#EDEDED);strokeWidth=1;" vertex="1" parent="1">
          <mxGeometry x="535" y="260" width="50" height="20" as="geometry" />
        </mxCell>
        <mxCell id="JrE_k6nqY89Hddkw8lCs-131" value="" style="endArrow=none;html=1;rounded=0;fillColor=#1ba1e2;strokeColor=#006EAF;exitX=0.756;exitY=0.938;exitDx=0;exitDy=0;exitPerimeter=0;fontColor=light-dark(#000000,#EDEDED);labelBackgroundColor=none;" edge="1" parent="1">
          <mxGeometry width="50" height="50" relative="1" as="geometry">
            <mxPoint x="550" y="260" as="sourcePoint" />
            <mxPoint x="1000" y="260" as="targetPoint" />
          </mxGeometry>
        </mxCell>
        <mxCell id="JrE_k6nqY89Hddkw8lCs-132" value="" style="endArrow=none;html=1;rounded=0;fillColor=#1ba1e2;strokeColor=#006EAF;fontColor=light-dark(#000000,#EDEDED);labelBackgroundColor=none;" edge="1" parent="1">
          <mxGeometry width="50" height="50" relative="1" as="geometry">
            <mxPoint x="1000" y="260" as="sourcePoint" />
            <mxPoint x="1000" y="610" as="targetPoint" />
          </mxGeometry>
        </mxCell>
        <mxCell id="JrE_k6nqY89Hddkw8lCs-133" value="" style="endArrow=none;html=1;rounded=0;fillColor=#1ba1e2;strokeColor=#006EAF;fontColor=light-dark(#000000,#EDEDED);labelBackgroundColor=none;" edge="1" parent="1">
          <mxGeometry width="50" height="50" relative="1" as="geometry">
            <mxPoint x="920" y="610" as="sourcePoint" />
            <mxPoint x="1000" y="610" as="targetPoint" />
          </mxGeometry>
        </mxCell>
        <mxCell id="JrE_k6nqY89Hddkw8lCs-134" value="" style="endArrow=none;html=1;rounded=0;fillColor=#1ba1e2;strokeColor=#006EAF;entryX=0.5;entryY=1;entryDx=0;entryDy=0;fontColor=light-dark(#000000,#EDEDED);labelBackgroundColor=none;" edge="1" parent="1" target="JrE_k6nqY89Hddkw8lCs-80">
          <mxGeometry width="50" height="50" relative="1" as="geometry">
            <mxPoint x="920" y="610" as="sourcePoint" />
            <mxPoint x="910" y="600" as="targetPoint" />
          </mxGeometry>
        </mxCell>
        <mxCell id="JrE_k6nqY89Hddkw8lCs-135" value="MemRead" style="text;html=1;align=center;verticalAlign=middle;resizable=0;points=[];autosize=1;fontSize=5;rounded=0;glass=0;labelBackgroundColor=none;fontColor=light-dark(#000000,#EDEDED);strokeWidth=1;" vertex="1" parent="1">
          <mxGeometry x="540" y="240" width="50" height="20" as="geometry" />
        </mxCell>
        <mxCell id="JrE_k6nqY89Hddkw8lCs-136" value="" style="endArrow=none;html=1;rounded=0;fillColor=#1ba1e2;strokeColor=#006EAF;exitX=0.608;exitY=0.996;exitDx=0;exitDy=0;exitPerimeter=0;entryX=0.638;entryY=-0.016;entryDx=0;entryDy=0;entryPerimeter=0;fontColor=light-dark(#000000,#EDEDED);labelBackgroundColor=none;" edge="1" parent="1" source="JrE_k6nqY89Hddkw8lCs-12" target="JrE_k6nqY89Hddkw8lCs-15">
          <mxGeometry width="50" height="50" relative="1" as="geometry">
            <mxPoint x="508" y="320" as="sourcePoint" />
            <mxPoint x="585" y="320" as="targetPoint" />
          </mxGeometry>
        </mxCell>
        <mxCell id="JrE_k6nqY89Hddkw8lCs-137" value="RegWrite" style="text;html=1;align=center;verticalAlign=middle;resizable=0;points=[];autosize=1;fontSize=5;rounded=0;glass=0;labelBackgroundColor=none;fontColor=light-dark(#000000,#EDEDED);rotation=90;" vertex="1" parent="1">
          <mxGeometry x="495" y="330" width="40" height="20" as="geometry" />
        </mxCell>
        <mxCell id="JrE_k6nqY89Hddkw8lCs-138" value="" style="endArrow=none;html=1;rounded=0;fillColor=#1ba1e2;strokeColor=#006EAF;exitX=0.756;exitY=0.938;exitDx=0;exitDy=0;exitPerimeter=0;strokeWidth=2;fontColor=light-dark(#000000,#EDEDED);labelBackgroundColor=none;" edge="1" parent="1">
          <mxGeometry width="50" height="50" relative="1" as="geometry">
            <mxPoint x="550" y="240" as="sourcePoint" />
            <mxPoint x="680" y="240.19" as="targetPoint" />
          </mxGeometry>
        </mxCell>
        <mxCell id="JrE_k6nqY89Hddkw8lCs-139" value="&lt;font style=&quot;&quot;&gt;ALU&lt;br&gt;control&lt;/font&gt;" style="ellipse;whiteSpace=wrap;html=1;fillColor=none;fontColor=light-dark(#000000,#EDEDED);strokeColor=#006EAF;textShadow=1;labelBackgroundColor=none;" vertex="1" parent="1">
          <mxGeometry x="720" y="640" width="70" height="110" as="geometry" />
        </mxCell>
        <mxCell id="JrE_k6nqY89Hddkw8lCs-140" value="" style="endArrow=none;html=1;rounded=0;fillColor=#1ba1e2;strokeColor=#006EAF;strokeWidth=2;fontColor=light-dark(#000000,#EDEDED);labelBackgroundColor=none;" edge="1" parent="1">
          <mxGeometry width="50" height="50" relative="1" as="geometry">
            <mxPoint x="680" y="240" as="sourcePoint" />
            <mxPoint x="680" y="760" as="targetPoint" />
          </mxGeometry>
        </mxCell>
        <mxCell id="JrE_k6nqY89Hddkw8lCs-141" value="" style="endArrow=none;html=1;rounded=0;fillColor=#1ba1e2;strokeColor=#006EAF;exitX=0.756;exitY=0.938;exitDx=0;exitDy=0;exitPerimeter=0;strokeWidth=2;fontColor=light-dark(#000000,#EDEDED);labelBackgroundColor=none;" edge="1" parent="1">
          <mxGeometry width="50" height="50" relative="1" as="geometry">
            <mxPoint x="680" y="760" as="sourcePoint" />
            <mxPoint x="750" y="760" as="targetPoint" />
          </mxGeometry>
        </mxCell>
        <mxCell id="JrE_k6nqY89Hddkw8lCs-142" value="" style="endArrow=none;html=1;rounded=0;fillColor=#1ba1e2;strokeColor=#006EAF;strokeWidth=2;entryX=0.429;entryY=1;entryDx=0;entryDy=0;entryPerimeter=0;fontColor=light-dark(#000000,#EDEDED);labelBackgroundColor=none;" edge="1" parent="1" target="JrE_k6nqY89Hddkw8lCs-139">
          <mxGeometry width="50" height="50" relative="1" as="geometry">
            <mxPoint x="750" y="760" as="sourcePoint" />
            <mxPoint x="790" y="780" as="targetPoint" />
          </mxGeometry>
        </mxCell>
        <mxCell id="JrE_k6nqY89Hddkw8lCs-143" value="" style="endArrow=none;html=1;rounded=0;fontColor=light-dark(#000000,#EDEDED);labelBackgroundColor=none;" edge="1" parent="1">
          <mxGeometry width="50" height="50" relative="1" as="geometry">
            <mxPoint x="540" y="610" as="sourcePoint" />
            <mxPoint x="360" y="610" as="targetPoint" />
          </mxGeometry>
        </mxCell>
        <mxCell id="JrE_k6nqY89Hddkw8lCs-145" value="" style="endArrow=none;html=1;rounded=0;fontColor=light-dark(#000000,#EDEDED);labelBackgroundColor=none;" edge="1" parent="1">
          <mxGeometry width="50" height="50" relative="1" as="geometry">
            <mxPoint x="540" y="700" as="sourcePoint" />
            <mxPoint x="540" y="610" as="targetPoint" />
          </mxGeometry>
        </mxCell>
        <mxCell id="JrE_k6nqY89Hddkw8lCs-147" value="" style="endArrow=classic;html=1;rounded=0;entryX=0;entryY=0.545;entryDx=0;entryDy=0;entryPerimeter=0;fontColor=light-dark(#000000,#EDEDED);labelBackgroundColor=none;" edge="1" parent="1" target="JrE_k6nqY89Hddkw8lCs-139">
          <mxGeometry width="50" height="50" relative="1" as="geometry">
            <mxPoint x="540" y="700" as="sourcePoint" />
            <mxPoint x="590" y="650" as="targetPoint" />
          </mxGeometry>
        </mxCell>
        <mxCell id="JrE_k6nqY89Hddkw8lCs-148" value="Inst[30,14:12]" style="text;html=1;align=center;verticalAlign=middle;resizable=0;points=[];autosize=1;strokeColor=none;fillColor=none;fontColor=light-dark(#000000,#EDEDED);labelBackgroundColor=none;" vertex="1" parent="1">
          <mxGeometry x="550" y="670" width="100" height="30" as="geometry" />
        </mxCell>
        <mxCell id="JrE_k6nqY89Hddkw8lCs-149" value="" style="endArrow=none;html=1;rounded=0;fillColor=#1ba1e2;strokeColor=#006EAF;exitX=0.571;exitY=0;exitDx=0;exitDy=0;exitPerimeter=0;strokeWidth=4;entryX=0.571;entryY=0.857;entryDx=0;entryDy=0;entryPerimeter=0;fontColor=light-dark(#000000,#EDEDED);labelBackgroundColor=none;" edge="1" parent="1" source="JrE_k6nqY89Hddkw8lCs-139" target="JrE_k6nqY89Hddkw8lCs-34">
          <mxGeometry width="50" height="50" relative="1" as="geometry">
            <mxPoint x="730" y="630" as="sourcePoint" />
            <mxPoint x="800" y="630" as="targetPoint" />
          </mxGeometry>
        </mxCell>
        <mxCell id="JrE_k6nqY89Hddkw8lCs-151" value="ALUOp" style="text;html=1;align=center;verticalAlign=middle;resizable=0;points=[];autosize=1;fontSize=5;rounded=0;glass=0;labelBackgroundColor=none;fontColor=light-dark(#000000,#EDEDED);strokeWidth=1;" vertex="1" parent="1">
          <mxGeometry x="545" y="220" width="40" height="20" as="geometry" />
        </mxCell>
        <mxCell id="JrE_k6nqY89Hddkw8lCs-152" value="" style="endArrow=none;html=1;rounded=0;fillColor=#1ba1e2;strokeColor=#006EAF;exitX=0.756;exitY=0.938;exitDx=0;exitDy=0;exitPerimeter=0;strokeWidth=2;fontColor=light-dark(#000000,#EDEDED);labelBackgroundColor=none;" edge="1" parent="1">
          <mxGeometry width="50" height="50" relative="1" as="geometry">
            <mxPoint x="550" y="220" as="sourcePoint" />
            <mxPoint x="800" y="220.19" as="targetPoint" />
          </mxGeometry>
        </mxCell>
        <mxCell id="JrE_k6nqY89Hddkw8lCs-153" value="" style="endArrow=none;html=1;rounded=0;fillColor=#1ba1e2;strokeColor=#006EAF;strokeWidth=2;fontColor=light-dark(#000000,#EDEDED);labelBackgroundColor=none;" edge="1" parent="1">
          <mxGeometry width="50" height="50" relative="1" as="geometry">
            <mxPoint x="800" y="220" as="sourcePoint" />
            <mxPoint x="800" y="880" as="targetPoint" />
          </mxGeometry>
        </mxCell>
        <mxCell id="JrE_k6nqY89Hddkw8lCs-154" value="" style="endArrow=none;html=1;rounded=0;fillColor=#1ba1e2;strokeColor=#006EAF;strokeWidth=2;fontColor=light-dark(#000000,#EDEDED);labelBackgroundColor=none;" edge="1" parent="1">
          <mxGeometry width="50" height="50" relative="1" as="geometry">
            <mxPoint x="420" y="880" as="sourcePoint" />
            <mxPoint x="800" y="880.19" as="targetPoint" />
          </mxGeometry>
        </mxCell>
        <mxCell id="JrE_k6nqY89Hddkw8lCs-155" value="" style="endArrow=none;html=1;rounded=0;fillColor=#1ba1e2;strokeColor=#006EAF;strokeWidth=2;exitX=1;exitY=0.25;exitDx=0;exitDy=0;fontColor=light-dark(#000000,#EDEDED);labelBackgroundColor=none;" edge="1" parent="1" source="JrE_k6nqY89Hddkw8lCs-99">
          <mxGeometry width="50" height="50" relative="1" as="geometry">
            <mxPoint x="420" y="850" as="sourcePoint" />
            <mxPoint x="420" y="880" as="targetPoint" />
          </mxGeometry>
        </mxCell>
        <mxCell id="JrE_k6nqY89Hddkw8lCs-156" value="MemtoReg" style="text;html=1;align=center;verticalAlign=middle;resizable=0;points=[];autosize=1;fontSize=5;rounded=0;glass=0;labelBackgroundColor=none;fontColor=light-dark(#000000,#EDEDED);strokeWidth=1;" vertex="1" parent="1">
          <mxGeometry x="540" y="200" width="50" height="20" as="geometry" />
        </mxCell>
        <mxCell id="JrE_k6nqY89Hddkw8lCs-157" value="Z" style="text;html=1;align=center;verticalAlign=middle;resizable=0;points=[];autosize=1;strokeColor=none;fillColor=none;fontColor=light-dark(#000000,#EDEDED);labelBackgroundColor=none;" vertex="1" parent="1">
          <mxGeometry x="770" y="460" width="30" height="30" as="geometry" />
        </mxCell>
        <mxCell id="JrE_k6nqY89Hddkw8lCs-158" value="C" style="text;html=1;align=center;verticalAlign=middle;resizable=0;points=[];autosize=1;strokeColor=none;fillColor=none;fontColor=light-dark(#000000,#EDEDED);labelBackgroundColor=none;" vertex="1" parent="1">
          <mxGeometry x="760" y="455" width="30" height="30" as="geometry" />
        </mxCell>
        <mxCell id="JrE_k6nqY89Hddkw8lCs-159" value="V" style="text;html=1;align=center;verticalAlign=middle;resizable=0;points=[];autosize=1;strokeColor=none;fillColor=none;fontColor=light-dark(#000000,#EDEDED);labelBackgroundColor=none;" vertex="1" parent="1">
          <mxGeometry x="750" y="450" width="30" height="30" as="geometry" />
        </mxCell>
        <mxCell id="JrE_k6nqY89Hddkw8lCs-160" value="S" style="text;html=1;align=center;verticalAlign=middle;resizable=0;points=[];autosize=1;strokeColor=none;fillColor=none;fontColor=light-dark(#000000,#EDEDED);labelBackgroundColor=none;" vertex="1" parent="1">
          <mxGeometry x="740" y="440" width="30" height="30" as="geometry" />
        </mxCell>
        <mxCell id="JrE_k6nqY89Hddkw8lCs-161" value="&lt;font style=&quot;font-size: 10px;&quot;&gt;Branch/Jump&lt;br&gt;control&lt;/font&gt;" style="ellipse;whiteSpace=wrap;html=1;fillColor=none;fontColor=light-dark(#000000,#EDEDED);strokeColor=#006EAF;textShadow=1;labelBackgroundColor=none;" vertex="1" parent="1">
          <mxGeometry x="710" y="300" width="70" height="110" as="geometry" />
        </mxCell>
        <mxCell id="JrE_k6nqY89Hddkw8lCs-162" value="" style="endArrow=none;html=1;rounded=0;fontColor=light-dark(#000000,#EDEDED);labelBackgroundColor=none;" edge="1" parent="1">
          <mxGeometry width="50" height="50" relative="1" as="geometry">
            <mxPoint x="790" y="470" as="sourcePoint" />
            <mxPoint x="790" y="400" as="targetPoint" />
          </mxGeometry>
        </mxCell>
        <mxCell id="JrE_k6nqY89Hddkw8lCs-164" value="" style="endArrow=classic;html=1;rounded=0;entryX=0.802;entryY=0.904;entryDx=0;entryDy=0;entryPerimeter=0;fontColor=light-dark(#000000,#EDEDED);labelBackgroundColor=none;" edge="1" parent="1" target="JrE_k6nqY89Hddkw8lCs-161">
          <mxGeometry width="50" height="50" relative="1" as="geometry">
            <mxPoint x="790" y="400" as="sourcePoint" />
            <mxPoint x="770" y="400" as="targetPoint" />
          </mxGeometry>
        </mxCell>
        <mxCell id="JrE_k6nqY89Hddkw8lCs-165" value="" style="endArrow=none;html=1;rounded=0;exitX=0.985;exitY=0.484;exitDx=0;exitDy=0;exitPerimeter=0;fontColor=light-dark(#000000,#EDEDED);labelBackgroundColor=none;" edge="1" parent="1" source="JrE_k6nqY89Hddkw8lCs-159">
          <mxGeometry width="50" height="50" relative="1" as="geometry">
            <mxPoint x="770" y="445" as="sourcePoint" />
            <mxPoint x="780" y="420" as="targetPoint" />
          </mxGeometry>
        </mxCell>
        <mxCell id="JrE_k6nqY89Hddkw8lCs-166" value="" style="endArrow=none;html=1;rounded=0;fontColor=light-dark(#000000,#EDEDED);labelBackgroundColor=none;" edge="1" parent="1">
          <mxGeometry width="50" height="50" relative="1" as="geometry">
            <mxPoint x="760" y="420" as="sourcePoint" />
            <mxPoint x="780" y="420" as="targetPoint" />
          </mxGeometry>
        </mxCell>
        <mxCell id="JrE_k6nqY89Hddkw8lCs-168" value="" style="endArrow=classic;html=1;rounded=0;entryX=0.718;entryY=0.978;entryDx=0;entryDy=0;entryPerimeter=0;fontColor=light-dark(#000000,#EDEDED);labelBackgroundColor=none;" edge="1" parent="1" target="JrE_k6nqY89Hddkw8lCs-161">
          <mxGeometry width="50" height="50" relative="1" as="geometry">
            <mxPoint x="760" y="420" as="sourcePoint" />
            <mxPoint x="750" y="430" as="targetPoint" />
          </mxGeometry>
        </mxCell>
        <mxCell id="JrE_k6nqY89Hddkw8lCs-172" value="" style="endArrow=classic;html=1;rounded=0;fontColor=light-dark(#000000,#EDEDED);labelBackgroundColor=none;" edge="1" parent="1">
          <mxGeometry width="50" height="50" relative="1" as="geometry">
            <mxPoint x="770" y="460" as="sourcePoint" />
            <mxPoint x="750" y="410" as="targetPoint" />
          </mxGeometry>
        </mxCell>
        <mxCell id="JrE_k6nqY89Hddkw8lCs-173" value="" style="endArrow=classic;html=1;rounded=0;entryX=0.402;entryY=0.997;entryDx=0;entryDy=0;entryPerimeter=0;exitX=0.5;exitY=0.333;exitDx=0;exitDy=0;exitPerimeter=0;fontColor=light-dark(#000000,#EDEDED);labelBackgroundColor=none;" edge="1" parent="1" source="JrE_k6nqY89Hddkw8lCs-160" target="JrE_k6nqY89Hddkw8lCs-161">
          <mxGeometry width="50" height="50" relative="1" as="geometry">
            <mxPoint x="720" y="460" as="sourcePoint" />
            <mxPoint x="770" y="410" as="targetPoint" />
          </mxGeometry>
        </mxCell>
        <mxCell id="JrE_k6nqY89Hddkw8lCs-174" value="" style="endArrow=classic;html=1;rounded=0;entryX=0.067;entryY=0.719;entryDx=0;entryDy=0;entryPerimeter=0;fontColor=light-dark(#000000,#EDEDED);labelBackgroundColor=none;" edge="1" parent="1" target="JrE_k6nqY89Hddkw8lCs-161">
          <mxGeometry width="50" height="50" relative="1" as="geometry">
            <mxPoint x="360" y="380" as="sourcePoint" />
            <mxPoint x="410" y="330" as="targetPoint" />
          </mxGeometry>
        </mxCell>
        <mxCell id="JrE_k6nqY89Hddkw8lCs-175" value="Inst[14:12]" style="text;html=1;align=center;verticalAlign=middle;resizable=0;points=[];autosize=1;strokeColor=none;fillColor=none;fontColor=light-dark(#000000,#EDEDED);labelBackgroundColor=none;" vertex="1" parent="1">
          <mxGeometry x="355" y="350" width="80" height="30" as="geometry" />
        </mxCell>
        <mxCell id="JrE_k6nqY89Hddkw8lCs-177" value="" style="endArrow=none;html=1;rounded=0;fillColor=#1ba1e2;strokeColor=#006EAF;fontColor=light-dark(#000000,#EDEDED);labelBackgroundColor=none;" edge="1" parent="1">
          <mxGeometry width="50" height="50" relative="1" as="geometry">
            <mxPoint x="545" y="205" as="sourcePoint" />
            <mxPoint x="610" y="205" as="targetPoint" />
          </mxGeometry>
        </mxCell>
        <mxCell id="JrE_k6nqY89Hddkw8lCs-178" value="" style="endArrow=none;html=1;rounded=0;fillColor=#1ba1e2;strokeColor=#006EAF;fontColor=light-dark(#000000,#EDEDED);labelBackgroundColor=none;" edge="1" parent="1">
          <mxGeometry width="50" height="50" relative="1" as="geometry">
            <mxPoint x="610" y="205" as="sourcePoint" />
            <mxPoint x="610" y="230" as="targetPoint" />
          </mxGeometry>
        </mxCell>
        <mxCell id="JrE_k6nqY89Hddkw8lCs-179" value="" style="endArrow=none;html=1;rounded=0;fillColor=#1ba1e2;strokeColor=#006EAF;fontColor=light-dark(#000000,#EDEDED);labelBackgroundColor=none;" edge="1" parent="1">
          <mxGeometry width="50" height="50" relative="1" as="geometry">
            <mxPoint x="610" y="230" as="sourcePoint" />
            <mxPoint x="720" y="230" as="targetPoint" />
          </mxGeometry>
        </mxCell>
        <mxCell id="JrE_k6nqY89Hddkw8lCs-180" value="" style="endArrow=none;html=1;rounded=0;fillColor=#1ba1e2;strokeColor=#006EAF;entryX=0;entryY=0;entryDx=0;entryDy=0;fontColor=light-dark(#000000,#EDEDED);labelBackgroundColor=none;" edge="1" parent="1" target="JrE_k6nqY89Hddkw8lCs-161">
          <mxGeometry width="50" height="50" relative="1" as="geometry">
            <mxPoint x="720" y="230" as="sourcePoint" />
            <mxPoint x="800" y="249.88" as="targetPoint" />
          </mxGeometry>
        </mxCell>
        <mxCell id="JrE_k6nqY89Hddkw8lCs-181" value="Branch" style="text;html=1;align=center;verticalAlign=middle;resizable=0;points=[];autosize=1;fontSize=5;rounded=0;glass=0;labelBackgroundColor=none;fontColor=light-dark(#000000,#EDEDED);strokeWidth=1;" vertex="1" parent="1">
          <mxGeometry x="540" y="185" width="40" height="20" as="geometry" />
        </mxCell>
        <mxCell id="JrE_k6nqY89Hddkw8lCs-182" value="" style="endArrow=none;html=1;rounded=0;fillColor=#1ba1e2;strokeColor=#006EAF;fontColor=light-dark(#000000,#EDEDED);labelBackgroundColor=none;" edge="1" parent="1">
          <mxGeometry width="50" height="50" relative="1" as="geometry">
            <mxPoint x="535" y="185" as="sourcePoint" />
            <mxPoint x="630" y="185" as="targetPoint" />
          </mxGeometry>
        </mxCell>
        <mxCell id="JrE_k6nqY89Hddkw8lCs-183" value="Jump" style="text;html=1;align=center;verticalAlign=middle;resizable=0;points=[];autosize=1;fontSize=5;rounded=0;glass=0;labelBackgroundColor=none;fontColor=light-dark(#000000,#EDEDED);strokeWidth=1;" vertex="1" parent="1">
          <mxGeometry x="535" y="165" width="40" height="20" as="geometry" />
        </mxCell>
        <mxCell id="JrE_k6nqY89Hddkw8lCs-184" value="" style="endArrow=none;html=1;rounded=0;fillColor=#1ba1e2;strokeColor=#006EAF;fontColor=light-dark(#000000,#EDEDED);labelBackgroundColor=none;" edge="1" parent="1">
          <mxGeometry width="50" height="50" relative="1" as="geometry">
            <mxPoint x="630" y="185" as="sourcePoint" />
            <mxPoint x="630" y="210" as="targetPoint" />
          </mxGeometry>
        </mxCell>
        <mxCell id="JrE_k6nqY89Hddkw8lCs-185" value="" style="endArrow=none;html=1;rounded=0;fillColor=#1ba1e2;strokeColor=#006EAF;fontColor=light-dark(#000000,#EDEDED);labelBackgroundColor=none;" edge="1" parent="1">
          <mxGeometry width="50" height="50" relative="1" as="geometry">
            <mxPoint x="630" y="210" as="sourcePoint" />
            <mxPoint x="730" y="210" as="targetPoint" />
          </mxGeometry>
        </mxCell>
        <mxCell id="JrE_k6nqY89Hddkw8lCs-186" value="" style="endArrow=none;html=1;rounded=0;fillColor=#1ba1e2;strokeColor=#006EAF;entryX=0.283;entryY=0.026;entryDx=0;entryDy=0;entryPerimeter=0;fontColor=light-dark(#000000,#EDEDED);labelBackgroundColor=none;" edge="1" parent="1" target="JrE_k6nqY89Hddkw8lCs-161">
          <mxGeometry width="50" height="50" relative="1" as="geometry">
            <mxPoint x="730" y="210" as="sourcePoint" />
            <mxPoint x="730" y="296" as="targetPoint" />
          </mxGeometry>
        </mxCell>
        <mxCell id="JrE_k6nqY89Hddkw8lCs-187" value="" style="endArrow=none;html=1;rounded=0;fontColor=light-dark(#000000,#EDEDED);labelBackgroundColor=none;" edge="1" parent="1">
          <mxGeometry width="50" height="50" relative="1" as="geometry">
            <mxPoint x="810" y="170" as="sourcePoint" />
            <mxPoint x="840" y="170" as="targetPoint" />
          </mxGeometry>
        </mxCell>
        <mxCell id="JrE_k6nqY89Hddkw8lCs-188" value="" style="endArrow=none;html=1;rounded=0;fontColor=light-dark(#000000,#EDEDED);labelBackgroundColor=none;" edge="1" parent="1">
          <mxGeometry width="50" height="50" relative="1" as="geometry">
            <mxPoint x="840" y="170" as="sourcePoint" />
            <mxPoint x="840" y="120" as="targetPoint" />
          </mxGeometry>
        </mxCell>
        <mxCell id="JrE_k6nqY89Hddkw8lCs-189" value="" style="endArrow=classic;html=1;rounded=0;fontColor=light-dark(#000000,#EDEDED);labelBackgroundColor=none;" edge="1" parent="1">
          <mxGeometry width="50" height="50" relative="1" as="geometry">
            <mxPoint x="840" y="120" as="sourcePoint" />
            <mxPoint x="880" y="120" as="targetPoint" />
          </mxGeometry>
        </mxCell>
        <mxCell id="JrE_k6nqY89Hddkw8lCs-190" value="" style="endArrow=none;html=1;rounded=0;fontColor=light-dark(#000000,#EDEDED);labelBackgroundColor=none;" edge="1" parent="1">
          <mxGeometry width="50" height="50" relative="1" as="geometry">
            <mxPoint x="820" y="500" as="sourcePoint" />
            <mxPoint x="820" y="200" as="targetPoint" />
          </mxGeometry>
        </mxCell>
        <mxCell id="JrE_k6nqY89Hddkw8lCs-191" value="" style="endArrow=none;html=1;rounded=0;fontColor=light-dark(#000000,#EDEDED);labelBackgroundColor=none;" edge="1" parent="1">
          <mxGeometry width="50" height="50" relative="1" as="geometry">
            <mxPoint x="820" y="200" as="sourcePoint" />
            <mxPoint x="860" y="200" as="targetPoint" />
          </mxGeometry>
        </mxCell>
        <mxCell id="JrE_k6nqY89Hddkw8lCs-193" value="" style="endArrow=none;html=1;rounded=0;fontColor=light-dark(#000000,#EDEDED);labelBackgroundColor=none;" edge="1" parent="1">
          <mxGeometry width="50" height="50" relative="1" as="geometry">
            <mxPoint x="860" y="200" as="sourcePoint" />
            <mxPoint x="860" y="160" as="targetPoint" />
          </mxGeometry>
        </mxCell>
        <mxCell id="JrE_k6nqY89Hddkw8lCs-194" value="" style="endArrow=classic;html=1;rounded=0;fontColor=light-dark(#000000,#EDEDED);labelBackgroundColor=none;" edge="1" parent="1">
          <mxGeometry width="50" height="50" relative="1" as="geometry">
            <mxPoint x="860" y="159.81" as="sourcePoint" />
            <mxPoint x="880" y="160" as="targetPoint" />
          </mxGeometry>
        </mxCell>
        <mxCell id="JrE_k6nqY89Hddkw8lCs-195" value="MUX" style="rounded=1;whiteSpace=wrap;html=1;arcSize=50;rotation=90;direction=east;fontColor=light-dark(#000000,#EDEDED);labelBackgroundColor=none;" vertex="1" parent="1">
          <mxGeometry x="840" y="110" width="110" height="20" as="geometry" />
        </mxCell>
        <mxCell id="JrE_k6nqY89Hddkw8lCs-196" value="" style="endArrow=none;html=1;rounded=0;fillColor=#1ba1e2;strokeColor=#006EAF;exitX=1;exitY=0.5;exitDx=0;exitDy=0;strokeWidth=2;fontColor=light-dark(#000000,#EDEDED);labelBackgroundColor=none;" edge="1" parent="1" source="JrE_k6nqY89Hddkw8lCs-161">
          <mxGeometry width="50" height="50" relative="1" as="geometry">
            <mxPoint x="790" y="354.78" as="sourcePoint" />
            <mxPoint x="900" y="355" as="targetPoint" />
          </mxGeometry>
        </mxCell>
        <mxCell id="JrE_k6nqY89Hddkw8lCs-197" value="" style="endArrow=none;html=1;rounded=0;fillColor=#1ba1e2;strokeColor=#006EAF;strokeWidth=2;exitX=1;exitY=0.25;exitDx=0;exitDy=0;fontColor=light-dark(#000000,#EDEDED);labelBackgroundColor=none;" edge="1" parent="1" source="JrE_k6nqY89Hddkw8lCs-195">
          <mxGeometry width="50" height="50" relative="1" as="geometry">
            <mxPoint x="900" y="185" as="sourcePoint" />
            <mxPoint x="900" y="355" as="targetPoint" />
          </mxGeometry>
        </mxCell>
        <mxCell id="JrE_k6nqY89Hddkw8lCs-198" value="" style="endArrow=none;html=1;rounded=0;fontColor=light-dark(#000000,#EDEDED);labelBackgroundColor=none;" edge="1" parent="1">
          <mxGeometry width="50" height="50" relative="1" as="geometry">
            <mxPoint x="910" y="120" as="sourcePoint" />
            <mxPoint x="960" y="120" as="targetPoint" />
          </mxGeometry>
        </mxCell>
        <mxCell id="JrE_k6nqY89Hddkw8lCs-199" value="" style="endArrow=none;html=1;rounded=0;fontColor=light-dark(#000000,#EDEDED);labelBackgroundColor=none;" edge="1" parent="1">
          <mxGeometry width="50" height="50" relative="1" as="geometry">
            <mxPoint x="960" y="120" as="sourcePoint" />
            <mxPoint x="960" y="40" as="targetPoint" />
          </mxGeometry>
        </mxCell>
        <mxCell id="JrE_k6nqY89Hddkw8lCs-200" value="" style="endArrow=none;html=1;rounded=0;fontColor=light-dark(#000000,#EDEDED);labelBackgroundColor=none;" edge="1" parent="1">
          <mxGeometry width="50" height="50" relative="1" as="geometry">
            <mxPoint y="40" as="sourcePoint" />
            <mxPoint x="960" y="40" as="targetPoint" />
          </mxGeometry>
        </mxCell>
        <mxCell id="JrE_k6nqY89Hddkw8lCs-201" value="" style="endArrow=none;html=1;rounded=0;fontColor=light-dark(#000000,#EDEDED);labelBackgroundColor=none;" edge="1" parent="1">
          <mxGeometry width="50" height="50" relative="1" as="geometry">
            <mxPoint y="300" as="sourcePoint" />
            <mxPoint y="40" as="targetPoint" />
          </mxGeometry>
        </mxCell>
        <mxCell id="JrE_k6nqY89Hddkw8lCs-203" value="" style="endArrow=classic;html=1;rounded=0;entryX=0;entryY=0.462;entryDx=0;entryDy=0;entryPerimeter=0;fontColor=light-dark(#000000,#EDEDED);labelBackgroundColor=none;" edge="1" parent="1" target="JrE_k6nqY89Hddkw8lCs-2">
          <mxGeometry width="50" height="50" relative="1" as="geometry">
            <mxPoint y="300" as="sourcePoint" />
            <mxPoint x="50" y="250" as="targetPoint" />
          </mxGeometry>
        </mxCell>
      </root>
    </mxGraphModel>
  </diagram>
</mxfile>
